<?xml version="1.0" encoding="utf-8"?>
<!-- Generator: Adobe Illustrator 16.0.0, SVG Export Plug-In . SVG Version: 6.00 Build 0)  -->
<!DOCTYPE svg PUBLIC "-//W3C//DTD SVG 1.1//EN" "http://www.w3.org/Graphics/SVG/1.1/DTD/svg11.dtd">
<svg version="1.1" id="Layer_1" xmlns="http://www.w3.org/2000/svg" xmlns:xlink="http://www.w3.org/1999/xlink" x="0px" y="0px"
	 width="424.745px" height="100px" viewBox="0 0 424.745 100" enable-background="new 0 0 424.745 100" xml:space="preserve">
<g>
	<path fill="#555555" d="M6.701,56.33c-1.856,0-3.38-0.271-4.571-0.816V52.85c1.574,0.402,3.078,0.605,4.511,0.605
		c4.884,0,7.326-2.665,7.326-7.993V0.9h3.088v44.26C17.054,52.607,13.603,56.33,6.701,56.33z"/>
	<path fill="#555555" d="M58.433,45.16H34.245V0.9h24.188v2.846H37.333v16.741h19.92v2.846h-19.92v18.981h21.101V45.16z"/>
	<path fill="#555555" d="M97.602,45.16H73.414V0.9h24.188v2.846H76.501v16.741h19.92v2.846h-19.92v18.981h21.101V45.16z"/>
	<path fill="#555555" d="M144.642,45.16h-3.118V23.393H115.67V45.16h-3.088V0.9h3.088v19.647h25.854V0.9h3.118V45.16z"/>
	<path fill="#555555" d="M172.307,25.119L185.264,0.9h3.33l-14.743,27.155V45.16h-3.179V28.297L155.869,0.9h3.542L172.307,25.119z"
		/>
	<path fill="#555555" d="M232.365,0.9v28.639c0,5.086-1.475,9.062-4.42,11.928c-2.947,2.866-7.054,4.299-12.322,4.299
		c-5.126,0-9.127-1.438-12.003-4.314s-4.314-6.887-4.314-12.034V0.9h3.118v28.639c0,4.259,1.181,7.574,3.542,9.945
		c2.361,2.372,5.701,3.557,10.021,3.557c4.218,0,7.488-1.166,9.808-3.497c2.321-2.331,3.482-5.565,3.482-9.703V0.9H232.365z"/>
	<path fill="#555555" d="M281.555,45.16h-3.119L252.219,5.865h-0.242c0.242,4.683,0.363,8.214,0.363,10.596V45.16h-2.967V0.9h3.088
		l26.188,39.234h0.182c-0.182-3.633-0.273-7.084-0.273-10.354V0.9h2.998V45.16z"/>
	<path fill="#555555" d="M320.113,45.16V0.9h3.088v41.354h21.101v2.906H320.113z"/>
	<path fill="#555555" d="M381.078,45.16h-24.188V0.9h24.188v2.846h-21.1v16.741h19.92v2.846h-19.92v18.981h21.1V45.16z"/>
	<path fill="#555555" d="M420.248,45.16h-24.189V0.9h24.189v2.846h-21.102v16.741h19.92v2.846h-19.92v18.981h21.102V45.16z"/>
</g>
<g>
	<path fill="#555655" d="M102.173,96.999h-1.096V81.294h8.604v1.01h-7.509v6.66h7.09v1.021h-7.09V96.999z"/>
	<path fill="#555655" d="M121.883,91.456h-6.381l-2.191,5.543h-1.214l6.316-15.77h0.698l6.188,15.77h-1.235L121.883,91.456z
		 M115.899,90.468h5.618l-2.138-5.661c-0.179-0.444-0.394-1.06-0.645-1.848c-0.193,0.688-0.405,1.311-0.634,1.869L115.899,90.468z"
		/>
	<path fill="#555655" d="M138.391,92.949c0,1.311-0.482,2.349-1.445,3.115c-0.963,0.767-2.244,1.149-3.84,1.149
		c-1.919,0-3.391-0.211-4.415-0.634v-1.096c1.131,0.479,2.574,0.72,4.329,0.72c1.289,0,2.311-0.295,3.067-0.887
		c0.755-0.59,1.133-1.365,1.133-2.325c0-0.595-0.125-1.087-0.376-1.478c-0.251-0.39-0.659-0.746-1.225-1.068
		c-0.566-0.322-1.396-0.67-2.492-1.042c-1.604-0.552-2.712-1.147-3.325-1.788c-0.612-0.642-0.918-1.495-0.918-2.562
		c0-1.175,0.46-2.133,1.38-2.873c0.92-0.742,2.104-1.112,3.55-1.112c1.475,0,2.861,0.279,4.157,0.838l-0.397,0.945
		c-1.304-0.544-2.55-0.816-3.738-0.816c-1.16,0-2.084,0.269-2.771,0.806s-1.031,1.268-1.031,2.191c0,0.58,0.105,1.057,0.317,1.429
		c0.211,0.372,0.557,0.707,1.037,1.005c0.479,0.297,1.303,0.653,2.471,1.068c1.225,0.423,2.145,0.832,2.761,1.23
		c0.616,0.396,1.065,0.848,1.348,1.354C138.25,91.622,138.391,92.233,138.391,92.949z"/>
	<path fill="#555655" d="M155.287,96.999h-1.106v-7.724h-9.174v7.724h-1.096V81.294h1.096v6.972h9.174v-6.972h1.106V96.999z"/>
	<path fill="#555655" d="M161.934,96.999V81.294h1.096v15.705H161.934z"/>
	<path fill="#555655" d="M182.879,89.125c0,2.492-0.623,4.464-1.869,5.913c-1.246,1.451-2.965,2.176-5.156,2.176
		c-2.185,0-3.899-0.725-5.146-2.176c-1.246-1.449-1.869-3.428-1.869-5.935c0-2.499,0.628-4.467,1.885-5.903
		c1.257-1.436,2.974-2.153,5.151-2.153c2.191,0,3.906,0.722,5.146,2.165C182.259,84.654,182.879,86.626,182.879,89.125z
		 M170.031,89.125c0,2.249,0.501,3.987,1.504,5.216c1.002,1.228,2.442,1.842,4.318,1.842c1.891,0,3.335-0.608,4.334-1.826
		s1.499-2.961,1.499-5.231c0-2.263-0.5-3.998-1.499-5.204c-0.999-1.207-2.437-1.811-4.313-1.811c-1.869,0-3.311,0.608-4.324,1.826
		C170.538,85.154,170.031,86.884,170.031,89.125z"/>
	<path fill="#555655" d="M200.107,96.999h-1.106l-9.303-13.943h-0.086c0.086,1.661,0.129,2.915,0.129,3.76v10.184h-1.053V81.294
		h1.096l9.292,13.922h0.064c-0.064-1.289-0.097-2.514-0.097-3.674V81.294h1.063V96.999z"/>
	<path fill="#555655" d="M226.594,88.996c0,2.636-0.691,4.628-2.074,5.978c-1.382,1.351-3.412,2.025-6.09,2.025h-3.76V81.294h4.243
		c2.506,0,4.414,0.655,5.72,1.966S226.594,86.482,226.594,88.996z M225.4,89.039c0-2.249-0.57-3.94-1.713-5.075
		c-1.143-1.136-2.82-1.703-5.033-1.703h-2.89v13.771h2.6C223.055,96.032,225.4,93.701,225.4,89.039z"/>
	<path fill="#555655" d="M240.985,96.999h-8.583V81.294h8.583v1.01h-7.487v5.94h7.068v1.01h-7.068v6.735h7.487V96.999z"/>
	<path fill="#555655" d="M255.41,92.949c0,1.311-0.481,2.349-1.445,3.115c-0.963,0.767-2.243,1.149-3.84,1.149
		c-1.919,0-3.391-0.211-4.415-0.634v-1.096c1.132,0.479,2.574,0.72,4.329,0.72c1.289,0,2.312-0.295,3.066-0.887
		c0.756-0.59,1.134-1.365,1.134-2.325c0-0.595-0.125-1.087-0.376-1.478c-0.251-0.39-0.659-0.746-1.225-1.068
		s-1.396-0.67-2.492-1.042c-1.604-0.552-2.713-1.147-3.324-1.788c-0.613-0.642-0.919-1.495-0.919-2.562
		c0-1.175,0.46-2.133,1.38-2.873c0.921-0.742,2.104-1.112,3.551-1.112c1.476,0,2.861,0.279,4.157,0.838l-0.397,0.945
		c-1.304-0.544-2.55-0.816-3.738-0.816c-1.16,0-2.084,0.269-2.771,0.806s-1.031,1.268-1.031,2.191c0,0.58,0.105,1.057,0.316,1.429
		c0.212,0.372,0.558,0.707,1.037,1.005c0.479,0.297,1.304,0.653,2.471,1.068c1.225,0.423,2.145,0.832,2.761,1.23
		c0.616,0.396,1.065,0.848,1.349,1.354C255.269,91.622,255.41,92.233,255.41,92.949z"/>
	<path fill="#555655" d="M260.93,96.999V81.294h1.096v15.705H260.93z"/>
	<path fill="#555655" d="M274.85,89.082h5.79v7.165c-1.519,0.645-3.227,0.967-5.124,0.967c-2.478,0-4.377-0.7-5.699-2.1
		c-1.32-1.4-1.981-3.383-1.981-5.946c0-1.597,0.327-3.013,0.983-4.249c0.654-1.234,1.593-2.189,2.814-2.862
		c1.221-0.673,2.622-1.01,4.205-1.01c1.712,0,3.248,0.315,4.608,0.945l-0.44,0.988c-1.36-0.63-2.771-0.945-4.232-0.945
		c-2.069,0-3.711,0.64-4.926,1.917c-1.213,1.279-1.82,3.003-1.82,5.173c0,2.363,0.576,4.142,1.729,5.333
		c1.153,1.193,2.847,1.789,5.081,1.789c1.446,0,2.675-0.204,3.685-0.612v-5.521h-4.673V89.082z"/>
	<path fill="#555655" d="M298.2,96.999h-1.106l-9.303-13.943h-0.086c0.086,1.661,0.129,2.915,0.129,3.76v10.184h-1.053V81.294h1.096
		l9.292,13.922h0.064c-0.064-1.289-0.097-2.514-0.097-3.674V81.294h1.063V96.999z"/>
	<path fill="#555655" d="M313.431,96.999h-8.583V81.294h8.583v1.01h-7.487v5.94h7.068v1.01h-7.068v6.735h7.487V96.999z"/>
	<path fill="#555655" d="M320.282,90.156v6.843h-1.096V81.294h3.738c1.948,0,3.388,0.359,4.318,1.08
		c0.931,0.719,1.396,1.803,1.396,3.249c0,1.053-0.277,1.94-0.833,2.664c-0.555,0.724-1.397,1.242-2.529,1.558l4.265,7.154h-1.311
		l-4.05-6.843H320.282z M320.282,89.211h2.997c1.325,0,2.353-0.296,3.083-0.886c0.73-0.592,1.096-1.463,1.096-2.616
		c0-1.196-0.358-2.066-1.074-2.61s-1.884-0.816-3.502-0.816h-2.6V89.211z"/>
</g>
<g>
</g>
<g>
</g>
<g>
</g>
<g>
</g>
<g>
</g>
<g>
</g>
</svg>
